<?xml version="1.0" encoding="UTF-8"?><svg id="a" xmlns="http://www.w3.org/2000/svg" viewBox="0 0 600 540"><defs><style>.b{fill:#f8a18e;}.c{fill:#0097ff;}.d{fill:#eee5e0;}.e{fill:#ebfbff;}.f{fill:#f5b7aa;}.g{fill:#f2cec5;}.h{fill:#ff9580;}.i{fill:#ff7258;}.j{fill:#454158;}</style></defs><polygon class="j" points="473.21 269.89 472.99 270 473.21 270.12 473.21 370 473.1 370.07 386.54 420.03 300 470 213.44 420.03 126.9 370.07 126.79 370 126.79 270.12 127.01 270 126.79 269.89 126.79 170 126.9 169.94 213.44 119.98 300 70 386.54 119.98 473.1 169.94 473.21 170 473.21 269.89"/><g><polygon class="h" points="300 362.11 220.28 408.19 140.57 362.16 220.33 316.05 300 362.11"/><polygon class="h" points="459.43 362.16 379.72 408.19 300 362.11 379.67 316.05 459.43 362.16"/><polygon class="b" points="220.33 316.05 140.57 362.16 140.46 362.11 140.46 270.11 140.67 270 220.33 316.05"/><polygon class="b" points="459.54 270.11 459.54 362.11 459.43 362.16 379.67 316.05 459.33 270 459.54 270.11"/><polygon class="g" points="459.54 177.89 459.54 269.89 459.33 270 379.67 223.95 459.43 177.84 459.54 177.89"/><polygon class="g" points="220.33 223.95 140.67 270 140.46 269.89 140.46 177.89 140.57 177.84 220.33 223.95"/><polygon class="c" points="140.46 269.89 140.67 270 140.46 270.11 140.46 269.89"/><polygon class="d" points="300 177.89 220.33 223.95 140.57 177.84 220.28 131.81 300 177.89"/><polygon class="e" points="379.72 131.81 300 177.89 220.28 131.81 300 85.79 379.72 131.81"/><polygon class="c" points="459.54 269.89 459.54 270.11 459.33 270 459.54 269.89"/><polygon class="b" points="379.67 316.05 300 362.11 220.33 316.05 300 270 379.67 316.05"/><polygon class="f" points="300 270 220.33 316.05 140.67 270 220.33 223.95 300 270"/><polygon class="d" points="459.43 177.84 379.67 223.95 300 177.89 379.72 131.81 459.43 177.84"/><polygon class="g" points="379.67 223.95 300 270 220.33 223.95 300 177.89 379.67 223.95"/><polygon class="i" points="379.72 408.19 300 454.21 220.28 408.19 300 362.11 379.72 408.19"/><polygon class="f" points="459.33 270 379.67 316.05 300 270 379.67 223.95 459.33 270"/></g></svg>