<?xml version="1.0" encoding="UTF-8"?><svg id="a" xmlns="http://www.w3.org/2000/svg" viewBox="0 0 600 600"><defs><style>.b{fill:#f8a18e;}.c{fill:#0097ff;}.d{fill:#eee5e0;}.e{fill:#ebfbff;}.f{fill:#f5b7aa;}.g{fill:#f2cec5;}.h{fill:#ff9580;}.i{fill:#ff7258;}.j{fill:#22212c;}.k{fill:#454158;}</style></defs><g><path class="j" d="M300,556c-68.38,0-132.67-26.63-181.02-74.98-48.35-48.35-74.98-112.64-74.98-181.02s26.63-132.67,74.98-181.02c48.35-48.35,112.64-74.98,181.02-74.98s132.67,26.63,181.02,74.98c48.35,48.35,74.98,112.64,74.98,181.02s-26.63,132.67-74.98,181.02c-48.35,48.35-112.64,74.98-181.02,74.98Z"/><path class="k" d="M300,50c33.76,0,66.49,6.61,97.31,19.64,29.77,12.59,56.51,30.62,79.47,53.58,22.96,22.96,40.99,49.7,53.58,79.47,13.03,30.81,19.64,63.55,19.64,97.31s-6.61,66.49-19.64,97.31c-12.59,29.77-30.62,56.51-53.58,79.47s-49.7,40.99-79.47,53.58c-30.81,13.03-63.55,19.64-97.31,19.64s-66.49-6.61-97.31-19.64c-29.77-12.59-56.51-30.62-79.47-53.58-22.96-22.96-40.99-49.7-53.58-79.47-13.03-30.81-19.64-63.55-19.64-97.31s6.61-66.49,19.64-97.31c12.59-29.77,30.62-56.51,53.58-79.47,22.96-22.96,49.7-40.99,79.47-53.58,30.81-13.03,63.55-19.64,97.31-19.64m0-12c-144.7,0-262,117.3-262,262s117.3,262,262,262,262-117.3,262-262S444.7,38,300,38h0Z"/></g><g><polygon class="k" points="473.21 299.89 472.99 300 473.21 300.12 473.21 400 473.1 400.07 386.54 450.03 300 500 213.44 450.03 126.9 400.07 126.79 400 126.79 300.12 127.01 300 126.79 299.89 126.79 200 126.9 199.94 213.44 149.98 300 100 386.54 149.98 473.1 199.94 473.21 200 473.21 299.89"/><g><polygon class="h" points="300 392.11 220.28 438.19 140.57 392.16 220.33 346.05 300 392.11"/><polygon class="h" points="459.43 392.16 379.72 438.19 300 392.11 379.67 346.05 459.43 392.16"/><polygon class="b" points="220.33 346.05 140.57 392.16 140.46 392.11 140.46 300.11 140.67 300 220.33 346.05"/><polygon class="b" points="459.54 300.11 459.54 392.11 459.43 392.16 379.67 346.05 459.33 300 459.54 300.11"/><polygon class="g" points="459.54 207.89 459.54 299.89 459.33 300 379.67 253.95 459.43 207.84 459.54 207.89"/><polygon class="g" points="220.33 253.95 140.67 300 140.46 299.89 140.46 207.89 140.57 207.84 220.33 253.95"/><polygon class="c" points="140.46 299.89 140.67 300 140.46 300.11 140.46 299.89"/><polygon class="d" points="300 207.89 220.33 253.95 140.57 207.84 220.28 161.81 300 207.89"/><polygon class="e" points="379.72 161.81 300 207.89 220.28 161.81 300 115.79 379.72 161.81"/><polygon class="c" points="459.54 299.89 459.54 300.11 459.33 300 459.54 299.89"/><polygon class="b" points="379.67 346.05 300 392.11 220.33 346.05 300 300 379.67 346.05"/><polygon class="f" points="300 300 220.33 346.05 140.67 300 220.33 253.95 300 300"/><polygon class="d" points="459.43 207.84 379.67 253.95 300 207.89 379.72 161.81 459.43 207.84"/><polygon class="g" points="379.67 253.95 300 300 220.33 253.95 300 207.89 379.67 253.95"/><polygon class="i" points="379.72 438.19 300 484.21 220.28 438.19 300 392.11 379.72 438.19"/><polygon class="f" points="459.33 300 379.67 346.05 300 300 379.67 253.95 459.33 300"/></g></g></svg>